<svg width="25" height="26" viewBox="0 0 25 26" fill="none" xmlns="http://www.w3.org/2000/svg">
<g id="bar">
<path id="Vector" d="M19.7917 9.87508H18.1667C18.5104 9.30217 18.7187 8.64592 18.7396 7.93758C18.7812 6.86467 18.2917 5.86466 17.5312 5.11466C15.9271 3.5105 14.6771 3.48966 13.5521 3.77091C12.6803 3.01918 11.5678 2.60521 10.4167 2.60425C8.44792 2.60425 6.76042 3.7605 5.96875 5.42717C4.32292 5.97925 3.125 7.52092 3.125 9.35425C3.125 11.2917 4.45833 12.9063 6.25 13.3751V20.2917C6.25 21.4376 7.1875 22.3751 8.33333 22.3751H15.625C16.7708 22.3751 17.7083 21.4376 17.7083 20.2917H19.7917C20.9375 20.2917 21.875 19.3542 21.875 18.2084V11.9584C21.875 10.8126 20.9375 9.87508 19.7917 9.87508ZM7.29167 11.4376C6.14583 11.4376 5.20833 10.5001 5.20833 9.35425C5.20833 8.46883 5.78125 7.68758 6.63542 7.39592L7.46875 7.11467L7.84375 6.323C8.33333 5.31258 9.3125 4.68758 10.4167 4.68758C11.2396 4.68758 11.8646 5.05217 12.2292 5.36467L13.0417 6.04175C13.0417 6.04175 13.7083 5.70842 14.5729 5.70842C15.7187 5.70842 16.6562 6.64592 16.6562 7.79175H13.5312C10.0729 7.79175 9.53125 11.4376 7.29167 11.4376ZM19.7917 18.2084H17.7083V11.9584H19.7917V18.2084Z" fill="white"/>
</g>
</svg>
