<svg width="30" height="30" viewBox="0 0 30 30" fill="none" xmlns="http://www.w3.org/2000/svg">
<g id="eye">
<path id="Vector" d="M2.77498 2.77498C2.61644 2.93356 2.52 3.14372 2.50314 3.36732C2.48629 3.59093 2.55014 3.81317 2.68311 3.99373L2.77498 4.1006L7.81873 9.14435C5.35987 10.8673 3.60446 13.4189 2.87436 16.3312C2.8206 16.5701 2.86245 16.8206 2.99096 17.029C3.11948 17.2375 3.32445 17.3874 3.56205 17.4467C3.79965 17.5059 4.05101 17.4699 4.26238 17.3462C4.47375 17.2226 4.62835 17.0211 4.69311 16.785C5.34142 14.2002 6.93846 11.9539 9.16686 10.4925L11.43 12.7556C10.5222 13.6993 10.0207 14.9614 10.0334 16.2709C10.0461 17.5803 10.5719 18.8325 11.4978 19.7584C12.4237 20.6843 13.6759 21.2101 14.9854 21.2228C16.2948 21.2355 17.5569 20.7341 18.5006 19.8262L25.8994 27.225C26.0667 27.3916 26.2907 27.4889 26.5266 27.4976C26.7626 27.5062 26.9931 27.4255 27.1721 27.2716C27.3511 27.1176 27.4655 26.9018 27.4923 26.6673C27.5192 26.4327 27.4565 26.1966 27.3169 26.0062L27.225 25.8994L19.5844 18.2569V18.255L18.0844 16.7569L14.4975 13.17H14.4994L10.8994 9.57185V9.56998L9.48373 8.15623L4.10061 2.77498C3.9248 2.59922 3.68639 2.50049 3.4378 2.50049C3.1892 2.50049 2.95079 2.59922 2.77498 2.77498ZM12.7556 14.0812L17.1731 18.5006C16.5831 19.067 15.7945 19.3795 14.9767 19.3711C14.1588 19.3628 13.3768 19.0342 12.7985 18.4558C12.2202 17.8775 11.8916 17.0955 11.8832 16.2777C11.8748 15.4598 12.1874 14.6713 12.7537 14.0812H12.7556ZM15 6.8756C13.7494 6.8756 12.5362 7.05935 11.3887 7.40623L12.9356 8.95123C15.6101 8.42145 18.386 8.93967 20.6892 10.3987C22.9924 11.8578 24.6469 14.1461 25.3106 16.7906C25.3754 17.0268 25.53 17.2282 25.7413 17.3519C25.9527 17.4755 26.2041 17.5116 26.4417 17.4523C26.6793 17.393 26.8842 17.2431 27.0128 17.0347C27.1413 16.8262 27.1831 16.5758 27.1294 16.3369C26.4511 13.6336 24.8892 11.2345 22.6917 9.52038C20.4942 7.80625 17.787 6.87539 15 6.8756ZM15.2437 11.2631L19.995 16.0125C19.9341 14.772 19.414 13.5986 18.5358 12.7204C17.6576 11.8422 16.4842 11.3221 15.2437 11.2612V11.2631Z" fill="#A0A0A0"/>
</g>
</svg>
