<svg width="55" height="80" viewBox="0 0 55 80" color='#484848' xmlns="http://www.w3.org/2000/svg">
<g id="bar svg">
<path id="Ellipse 3" d="M54.7052 26.4039C54.7052 40.9864 27.7052 80 27.7052 80C27.7052 80 0.7052 40.9864 0.7052 26.4039C0.7052 11.8214 12.7935 0 27.7052 0C42.6169 0 54.7052 11.8214 54.7052 26.4039Z"  fill="currentColor" />
<ellipse id="Ellipse 4" cx="27.3022" cy="26.0099" rx="18.5373" ry="18.1281" fill="white"/>
<path id="Vector" d="M33.5685 23.2708H31.9435C32.2873 22.6979 32.4956 22.0417 32.5164 21.3333C32.5581 20.2604 32.0685 19.2604 31.3081 18.5104C29.7039 16.9062 28.4539 16.8854 27.3289 17.1667C26.4572 16.4149 25.3446 16.001 24.1935 16C22.2248 16 20.5373 17.1563 19.7456 18.8229C18.0998 19.375 16.9019 20.9167 16.9019 22.75C16.9019 24.6875 18.2352 26.3021 20.0269 26.7708V33.6875C20.0269 34.8333 20.9644 35.7708 22.1102 35.7708H29.4019C30.5477 35.7708 31.4852 34.8333 31.4852 33.6875H33.5685C34.7144 33.6875 35.6519 32.75 35.6519 31.6042V25.3542C35.6519 24.2083 34.7144 23.2708 33.5685 23.2708ZM21.0685 24.8333C19.9227 24.8333 18.9852 23.8958 18.9852 22.75C18.9852 21.8646 19.5581 21.0833 20.4123 20.7917L21.2456 20.5104L21.6206 19.7188C22.1102 18.7083 23.0894 18.0833 24.1935 18.0833C25.0164 18.0833 25.6414 18.4479 26.006 18.7604L26.8185 19.4375C26.8185 19.4375 27.4852 19.1042 28.3498 19.1042C29.4956 19.1042 30.4331 20.0417 30.4331 21.1875H27.3081C23.8498 21.1875 23.3081 24.8333 21.0685 24.8333ZM33.5685 31.6042H31.4852V25.3542H33.5685V31.6042Z"  fill="currentColor" />
</g>
</svg>
