<svg width="21" height="21" viewBox="0 0 21 21" fill="none" xmlns="http://www.w3.org/2000/svg">
<path d="M16.2059 1.42796C16.0702 1.29225 15.9091 1.18461 15.7317 1.11118C15.5544 1.03775 15.3643 0.999969 15.1724 1H3.11101C2.83377 0.99994 2.55924 1.0545 2.30309 1.16057C2.04694 1.26664 1.8142 1.42213 1.61817 1.61817C1.42213 1.8142 1.26664 2.04694 1.16057 2.30309C1.0545 2.55924 0.99994 2.83377 1 3.11101V17.889C0.99994 18.1662 1.0545 18.4408 1.16057 18.6969C1.26664 18.9531 1.42213 19.1858 1.61817 19.3818C1.8142 19.5779 2.04694 19.7334 2.30309 19.8394C2.55924 19.9455 2.83377 20.0001 3.11101 20H17.889C18.4483 19.9983 18.9843 19.7754 19.3798 19.3798C19.7754 18.9843 19.9983 18.4483 20 17.889V5.82764C20 5.6357 19.9623 5.44563 19.8888 5.26829C19.8154 5.09094 19.7078 4.9298 19.572 4.79406L16.2059 1.42796ZM10.5 17.8077C9.92187 17.8077 9.35672 17.6363 8.87603 17.3151C8.39533 16.9939 8.02067 16.5374 7.79943 16.0032C7.57819 15.4691 7.5203 14.8814 7.63309 14.3144C7.74588 13.7473 8.02427 13.2265 8.43307 12.8177C8.84187 12.4089 9.36271 12.1305 9.92974 12.0177C10.4968 11.9049 11.0845 11.9628 11.6186 12.184C12.1527 12.4053 12.6093 12.7799 12.9304 13.2606C13.2516 13.7413 13.4231 14.3065 13.4231 14.8846C13.4236 15.2686 13.3483 15.6489 13.2016 16.0038C13.0548 16.3587 12.8395 16.6811 12.568 16.9526C12.2965 17.2241 11.974 17.4394 11.6192 17.5862C11.2643 17.7329 10.884 17.8082 10.5 17.8077ZM12.6923 7.57692H3.92308C3.72926 7.57692 3.54339 7.49993 3.40635 7.36289C3.2693 7.22584 3.19231 7.03997 3.19231 6.84615V3.92308C3.19231 3.72926 3.2693 3.54339 3.40635 3.40635C3.54339 3.2693 3.72926 3.19231 3.92308 3.19231H12.6923C12.8861 3.19231 13.072 3.2693 13.209 3.40635C13.3461 3.54339 13.4231 3.72926 13.4231 3.92308V6.84615C13.4231 7.03997 13.3461 7.22584 13.209 7.36289C13.072 7.49993 12.8861 7.57692 12.6923 7.57692Z" stroke="#DC6B61" stroke-width="1.5" stroke-linecap="round" stroke-linejoin="round"/>
</svg>
